<mxfile host="app.diagrams.net" modified="2024-03-22T11:24:15.285Z" agent="Mozilla/5.0 (X11; Ubuntu; Linux x86_64; rv:124.0) Gecko/20100101 Firefox/124.0" etag="OVkhGRExWUlYmW1qQ6oP" version="24.0.7" type="device">
  <diagram name="Page-1" id="pQfnj3NExLm9OcA5Qyr0">
    <mxGraphModel dx="1839" dy="1285" grid="1" gridSize="10" guides="1" tooltips="1" connect="1" arrows="1" fold="1" page="1" pageScale="1" pageWidth="850" pageHeight="1100" math="0" shadow="0">
      <root>
        <mxCell id="0" />
        <mxCell id="1" parent="0" />
        <mxCell id="AZQRVmFf_BJs81wXt6A2-1" value="test" style="whiteSpace=wrap;html=1;aspect=fixed;" vertex="1" parent="1">
          <mxGeometry x="260" y="240" width="80" height="80" as="geometry" />
        </mxCell>
      </root>
    </mxGraphModel>
  </diagram>
</mxfile>
